<svg width="1440" height="1024" viewBox="0 0 1440 1024" fill="none" xmlns="http://www.w3.org/2000/svg">
<g clip-path="url(#clip0)">
<rect x="273" y="398" width="850" height="346" rx="16" fill="#BEBEBE"/>
<g filter="url(#filter0_d)">
<rect x="299" y="459" width="798" height="265" rx="17" fill="black" fill-opacity="0.82"/>
</g>
<path d="M1033.24 703.4L1039.82 687.2H1042.31L1048.79 703.4L1046.7 704.24L1044.83 699.44H1037.06L1035.18 704.192L1033.24 703.4ZM1037.78 697.52H1044.09L1040.94 689.456L1037.78 697.52Z" fill="#CB1616" fill-opacity="0.82"/>
<rect x="570" y="459" width="274" height="33" fill="#9F9F9F"/>
<rect x="570" y="691" width="274" height="33" fill="#9F9F9F"/>
<rect x="570" y="503" width="274" height="47" rx="4" fill="#9F9F9F"/>
<rect x="570" y="561" width="274" height="47" rx="4" fill="#9F9F9F"/>
<rect x="581" y="617" width="252" height="65" rx="5" fill="#C0C0C0"/>
<g filter="url(#filter1_d)">
<rect x="604" y="632" width="82" height="34" rx="17" fill="black" fill-opacity="0.82"/>
</g>
<g filter="url(#filter2_d)">
<rect x="733" y="632" width="82" height="34" rx="17" fill="black" fill-opacity="0.82"/>
</g>
<g filter="url(#filter3_d)">
<path d="M743.872 589.664C744.448 590.144 745.096 590.536 745.816 590.84C746.536 591.144 747.376 591.296 748.336 591.296C749.488 591.296 750.4 591.056 751.072 590.576C751.744 590.096 752.08 589.448 752.08 588.632C752.08 588.296 752.032 587.984 751.936 587.696C751.84 587.408 751.648 587.136 751.36 586.88C751.088 586.608 750.696 586.344 750.184 586.088C749.688 585.816 749.04 585.528 748.24 585.224C747.376 584.888 746.64 584.56 746.032 584.24C745.44 583.904 744.96 583.544 744.592 583.16C744.224 582.76 743.96 582.328 743.8 581.864C743.64 581.384 743.56 580.84 743.56 580.232C743.56 579.64 743.68 579.08 743.92 578.552C744.176 578.024 744.544 577.568 745.024 577.184C745.52 576.784 746.12 576.472 746.824 576.248C747.544 576.024 748.36 575.912 749.272 575.912C750.264 575.912 751.152 576.016 751.936 576.224C752.72 576.416 753.496 576.696 754.264 577.064L753.424 579.008C752.88 578.688 752.24 578.424 751.504 578.216C750.784 577.992 750.024 577.88 749.224 577.88C748.168 577.88 747.336 578.088 746.728 578.504C746.12 578.904 745.816 579.44 745.816 580.112C745.816 580.432 745.856 580.72 745.936 580.976C746.032 581.216 746.208 581.456 746.464 581.696C746.736 581.92 747.104 582.152 747.568 582.392C748.048 582.632 748.68 582.896 749.464 583.184C750.392 583.536 751.176 583.896 751.816 584.264C752.456 584.632 752.968 585.024 753.352 585.44C753.736 585.856 754.008 586.304 754.168 586.784C754.344 587.264 754.432 587.792 754.432 588.368C754.432 589.152 754.28 589.848 753.976 590.456C753.672 591.064 753.248 591.584 752.704 592.016C752.176 592.432 751.536 592.752 750.784 592.976C750.032 593.184 749.216 593.288 748.336 593.288C747.168 593.288 746.104 593.136 745.144 592.832C744.184 592.512 743.376 592.096 742.72 591.584L743.872 589.664ZM755.881 576.2H768.481V578.216H763.321V593H761.041V578.216H755.881V576.2ZM767.529 592.4L774.105 576.2H776.601L783.081 592.4L780.993 593.24L779.121 588.44H771.345L769.473 593.192L767.529 592.4ZM772.065 586.52H778.377L775.233 578.456L772.065 586.52ZM795.272 593.288L793.184 588.728C792.656 587.592 791.992 586.784 791.192 586.304C790.392 585.824 789.368 585.584 788.12 585.584H787.76V593H785.48V576.248C786.344 576.168 787.152 576.112 787.904 576.08C788.672 576.032 789.504 576.008 790.4 576.008C791.424 576.008 792.32 576.12 793.088 576.344C793.856 576.552 794.496 576.856 795.008 577.256C795.52 577.656 795.904 578.128 796.16 578.672C796.432 579.216 796.568 579.816 796.568 580.472C796.568 581.64 796.216 582.584 795.512 583.304C794.824 584.008 793.824 584.536 792.512 584.888C792.832 585.032 793.128 585.2 793.4 585.392C793.672 585.568 793.928 585.792 794.168 586.064C794.408 586.32 794.64 586.632 794.864 587C795.104 587.368 795.344 587.816 795.584 588.344L797.408 592.28L795.272 593.288ZM790.4 577.928C789.856 577.928 789.368 577.936 788.936 577.952C788.504 577.968 788.112 577.992 787.76 578.024V583.664H790.4C791.552 583.664 792.488 583.408 793.208 582.896C793.928 582.384 794.288 581.648 794.288 580.688C794.288 579.888 793.952 579.232 793.28 578.72C792.608 578.192 791.648 577.928 790.4 577.928ZM797.646 576.2H810.246V578.216H805.086V593H802.806V578.216H797.646V576.2Z" fill="#FF0000" fill-opacity="0.61"/>
</g>
<g filter="url(#filter4_d)">
<path d="M605.872 589.664C606.448 590.144 607.096 590.536 607.816 590.84C608.536 591.144 609.376 591.296 610.336 591.296C611.488 591.296 612.4 591.056 613.072 590.576C613.744 590.096 614.08 589.448 614.08 588.632C614.08 588.296 614.032 587.984 613.936 587.696C613.84 587.408 613.648 587.136 613.36 586.88C613.088 586.608 612.696 586.344 612.184 586.088C611.688 585.816 611.04 585.528 610.24 585.224C609.376 584.888 608.64 584.56 608.032 584.24C607.44 583.904 606.96 583.544 606.592 583.16C606.224 582.76 605.96 582.328 605.8 581.864C605.64 581.384 605.56 580.84 605.56 580.232C605.56 579.64 605.68 579.08 605.92 578.552C606.176 578.024 606.544 577.568 607.024 577.184C607.52 576.784 608.12 576.472 608.824 576.248C609.544 576.024 610.36 575.912 611.272 575.912C612.264 575.912 613.152 576.016 613.936 576.224C614.72 576.416 615.496 576.696 616.264 577.064L615.424 579.008C614.88 578.688 614.24 578.424 613.504 578.216C612.784 577.992 612.024 577.88 611.224 577.88C610.168 577.88 609.336 578.088 608.728 578.504C608.12 578.904 607.816 579.44 607.816 580.112C607.816 580.432 607.856 580.72 607.936 580.976C608.032 581.216 608.208 581.456 608.464 581.696C608.736 581.92 609.104 582.152 609.568 582.392C610.048 582.632 610.68 582.896 611.464 583.184C612.392 583.536 613.176 583.896 613.816 584.264C614.456 584.632 614.968 585.024 615.352 585.44C615.736 585.856 616.008 586.304 616.168 586.784C616.344 587.264 616.432 587.792 616.432 588.368C616.432 589.152 616.28 589.848 615.976 590.456C615.672 591.064 615.248 591.584 614.704 592.016C614.176 592.432 613.536 592.752 612.784 592.976C612.032 593.184 611.216 593.288 610.336 593.288C609.168 593.288 608.104 593.136 607.144 592.832C606.184 592.512 605.376 592.096 604.72 591.584L605.872 589.664ZM619.801 576.2H629.881V578.168H622.081V583.28H628.801V585.2H622.081V591.032H629.881V593H619.801V576.2ZM643.097 593H633.113V576.2H635.393V590.96H643.097V593ZM645.371 576.2H655.451V578.168H647.651V583.28H654.371V585.2H647.651V591.032H655.451V593H645.371V576.2ZM660.051 584.576C660.051 585.584 660.179 586.504 660.435 587.336C660.707 588.152 661.075 588.856 661.539 589.448C662.019 590.04 662.587 590.496 663.243 590.816C663.899 591.136 664.619 591.296 665.403 591.296C666.187 591.296 666.867 591.208 667.443 591.032C668.019 590.84 668.579 590.584 669.123 590.264L669.819 592.16C669.227 592.48 668.547 592.752 667.779 592.976C667.027 593.184 666.147 593.288 665.139 593.288C664.035 593.288 663.027 593.088 662.115 592.688C661.219 592.288 660.443 591.72 659.787 590.984C659.131 590.232 658.619 589.328 658.251 588.272C657.899 587.2 657.723 586 657.723 584.672C657.723 583.392 657.899 582.216 658.251 581.144C658.619 580.072 659.139 579.152 659.811 578.384C660.483 577.6 661.291 576.992 662.235 576.56C663.195 576.128 664.259 575.912 665.427 575.912C666.243 575.912 666.971 575.992 667.611 576.152C668.267 576.296 668.883 576.504 669.459 576.776L668.763 578.696C668.267 578.456 667.755 578.264 667.227 578.12C666.715 577.976 666.107 577.904 665.403 577.904C664.635 577.904 663.923 578.056 663.267 578.36C662.611 578.648 662.043 579.08 661.563 579.656C661.083 580.232 660.707 580.936 660.435 581.768C660.179 582.584 660.051 583.52 660.051 584.576ZM671.013 576.2H683.613V578.216H678.453V593H676.173V578.216H671.013V576.2Z" fill="#FF0000" fill-opacity="0.61"/>
</g>
<path fill-rule="evenodd" clip-rule="evenodd" d="M463 536H399V588.581V641.161V693.742H463L463 641.161H527V588.581H463V536ZM399 588.581H335V641.161H399V588.581ZM404.76 698.474H405.4V699H404.76V698.474Z" fill="#B3B3B3"/>
<path fill-rule="evenodd" clip-rule="evenodd" d="M461.667 537.5H400.5V590H337V640H400.5V692.5H461.667V640H525V590.742L461.667 590.742V537.5Z" fill="black" fill-opacity="0.96"/>
<mask id="path-15-inside-1" fill="white">
<path fill-rule="evenodd" clip-rule="evenodd" d="M456.354 562.075L430.677 542L405 562.075H413.5V586.062H448V562.075H456.354Z"/>
</mask>
<path fill-rule="evenodd" clip-rule="evenodd" d="M456.354 562.075L430.677 542L405 562.075H413.5V586.062H448V562.075H456.354Z" fill="#393939" fill-opacity="0.07"/>
<path d="M430.677 542L431.293 541.212L430.677 540.731L430.061 541.212L430.677 542ZM456.354 562.075V563.075H459.256L456.97 561.287L456.354 562.075ZM405 562.075L404.384 561.287L402.097 563.075H405V562.075ZM413.5 562.075H414.5V561.075H413.5V562.075ZM413.5 586.062H412.5V587.062H413.5V586.062ZM448 586.062V587.062H449V586.062H448ZM448 562.075V561.075H447V562.075H448ZM430.061 542.788L455.738 562.863L456.97 561.287L431.293 541.212L430.061 542.788ZM405.616 562.863L431.293 542.788L430.061 541.212L404.384 561.287L405.616 562.863ZM413.5 561.075H405V563.075H413.5V561.075ZM414.5 586.062V562.075H412.5V586.062H414.5ZM448 585.062H413.5V587.062H448V585.062ZM447 562.075V586.062H449V562.075H447ZM456.354 561.075H448V563.075H456.354V561.075Z" fill="#525252" fill-opacity="0.28" mask="url(#path-15-inside-1)"/>
<mask id="path-17-inside-2" fill="white">
<path fill-rule="evenodd" clip-rule="evenodd" d="M405.037 668.066L430.745 688.101L456.391 667.987L448.998 667.998L448.962 644.011L413.195 644.066L413.232 668.053L405.037 668.066Z"/>
</mask>
<path fill-rule="evenodd" clip-rule="evenodd" d="M405.037 668.066L430.745 688.101L456.391 667.987L448.998 667.998L448.962 644.011L413.195 644.066L413.232 668.053L405.037 668.066Z" fill="#393939" fill-opacity="0.07"/>
<path d="M430.745 688.101L430.13 688.89L430.747 689.371L431.362 688.888L430.745 688.101ZM405.037 668.066L405.035 667.066L402.133 667.071L404.422 668.855L405.037 668.066ZM456.391 667.987L457.008 668.774L459.292 666.983L456.389 666.987L456.391 667.987ZM448.998 667.998L447.998 668L448 669L449 668.998L448.998 667.998ZM448.962 644.011L449.962 644.01L449.96 643.01L448.96 643.011L448.962 644.011ZM413.195 644.066L413.193 643.066L412.193 643.068L412.195 644.068L413.195 644.066ZM413.232 668.053L413.233 669.053L414.233 669.052L414.232 668.052L413.232 668.053ZM431.359 687.313L405.652 667.277L404.422 668.855L430.13 688.89L431.359 687.313ZM455.774 667.2L430.128 687.315L431.362 688.888L457.008 668.774L455.774 667.2ZM449 668.998L456.392 668.987L456.389 666.987L448.997 666.998L449 668.998ZM447.962 644.013L447.998 668L449.998 667.997L449.962 644.01L447.962 644.013ZM413.197 645.066L448.963 645.011L448.96 643.011L413.193 643.066L413.197 645.066ZM414.232 668.052L414.195 644.065L412.195 644.068L412.232 668.055L414.232 668.052ZM405.038 669.066L413.233 669.053L413.23 667.053L405.035 667.066L405.038 669.066Z" fill="#525252" fill-opacity="0.28" mask="url(#path-17-inside-2)"/>
<mask id="path-19-inside-3" fill="white">
<path fill-rule="evenodd" clip-rule="evenodd" d="M496.239 636.192L516.188 614.038L495.987 592.115L496.021 598.046L472.034 598.183L472.219 630.489L496.206 630.352L496.239 636.192Z"/>
</mask>
<path fill-rule="evenodd" clip-rule="evenodd" d="M496.239 636.192L516.188 614.038L495.987 592.115L496.021 598.046L472.034 598.183L472.219 630.489L496.206 630.352L496.239 636.192Z" fill="#393939" fill-opacity="0.07"/>
<path d="M516.188 614.038L516.931 614.708L517.54 614.031L516.923 613.361L516.188 614.038ZM496.239 636.192L495.239 636.198L495.254 638.781L496.983 636.861L496.239 636.192ZM495.987 592.115L496.722 591.437L494.972 589.538L494.987 592.121L495.987 592.115ZM496.021 598.046L496.026 599.046L497.026 599.04L497.021 598.04L496.021 598.046ZM472.034 598.183L472.028 597.183L471.028 597.189L471.034 598.189L472.034 598.183ZM472.219 630.489L471.219 630.495L471.225 631.495L472.225 631.489L472.219 630.489ZM496.206 630.352L497.206 630.346L497.2 629.346L496.2 629.352L496.206 630.352ZM515.444 613.369L495.496 635.523L496.983 636.861L516.931 614.708L515.444 613.369ZM495.251 592.793L515.452 614.716L516.923 613.361L496.722 591.437L495.251 592.793ZM497.021 598.04L496.987 592.109L494.987 592.121L495.021 598.052L497.021 598.04ZM472.04 599.183L496.026 599.046L496.015 597.046L472.028 597.183L472.04 599.183ZM473.219 630.483L473.034 598.178L471.034 598.189L471.219 630.495L473.219 630.483ZM496.2 629.352L472.214 629.489L472.225 631.489L496.212 631.352L496.2 629.352ZM497.239 636.186L497.206 630.346L495.206 630.357L495.239 636.198L497.239 636.186Z" fill="#525252" fill-opacity="0.28" mask="url(#path-19-inside-3)"/>
<mask id="path-21-inside-4" fill="white">
<path fill-rule="evenodd" clip-rule="evenodd" d="M366.107 592.015L346.016 614.039L366.075 636.092L366.08 629.544L390.067 629.561L390.09 597.831L366.103 597.813L366.107 592.015Z"/>
</mask>
<path fill-rule="evenodd" clip-rule="evenodd" d="M366.107 592.015L346.016 614.039L366.075 636.092L366.08 629.544L390.067 629.561L390.09 597.831L366.103 597.813L366.107 592.015Z" fill="#393939" fill-opacity="0.07"/>
<path d="M346.016 614.039L345.277 613.365L344.663 614.038L345.276 614.712L346.016 614.039ZM366.107 592.015L367.107 592.015L367.109 589.432L365.368 591.341L366.107 592.015ZM366.075 636.092L365.335 636.765L367.073 638.676L367.075 636.093L366.075 636.092ZM366.08 629.544L366.08 628.544L365.08 628.543L365.08 629.543L366.08 629.544ZM390.067 629.561L390.066 630.561L391.066 630.562L391.067 629.562L390.067 629.561ZM390.09 597.831L391.09 597.831L391.09 596.831L390.09 596.831L390.09 597.831ZM366.103 597.813L365.103 597.813L365.102 598.813L366.102 598.813L366.103 597.813ZM346.755 614.713L366.846 592.688L365.368 591.341L345.277 613.365L346.755 614.713ZM366.815 635.419L346.756 613.366L345.276 614.712L365.335 636.765L366.815 635.419ZM365.08 629.543L365.075 636.092L367.075 636.093L367.08 629.545L365.08 629.543ZM390.067 628.561L366.08 628.544L366.079 630.544L390.066 630.561L390.067 628.561ZM389.09 597.83L389.067 629.561L391.067 629.562L391.09 597.831L389.09 597.83ZM366.102 598.813L390.089 598.831L390.09 596.831L366.103 596.813L366.102 598.813ZM365.107 592.014L365.103 597.813L367.103 597.814L367.107 592.015L365.107 592.014Z" fill="#525252" fill-opacity="0.28" mask="url(#path-21-inside-4)"/>
<rect x="880" y="613" width="73" height="69" rx="4" fill="#C4C4C4"/>
<rect x="967" y="613" width="73" height="69" rx="4" fill="#C4C4C4"/>
<g filter="url(#filter5_d)">
<circle cx="1003.5" cy="646.5" r="29.5" fill="#CB1616" fill-opacity="0.88"/>
</g>
<g filter="url(#filter6_d)">
<circle cx="916.5" cy="647.5" r="29.5" fill="#CB1616" fill-opacity="0.88"/>
</g>
<path d="M955.16 687.248C955.72 687.184 956.408 687.128 957.224 687.08C958.056 687.032 959.016 687.008 960.104 687.008C962.168 687.008 963.744 687.392 964.832 688.16C965.936 688.928 966.488 689.984 966.488 691.328C966.488 692.224 966.256 692.976 965.792 693.584C965.328 694.192 964.64 694.696 963.728 695.096C964.816 695.48 965.64 696.008 966.2 696.68C966.76 697.352 967.04 698.192 967.04 699.2C967.04 700.736 966.44 701.952 965.24 702.848C964.056 703.744 962.312 704.192 960.008 704.192C959.032 704.192 958.104 704.168 957.224 704.12C956.36 704.088 955.672 704.032 955.16 703.952V687.248ZM960.176 702.296C961.616 702.296 962.728 702.04 963.512 701.528C964.312 701.016 964.712 700.272 964.712 699.296C964.712 698.336 964.32 697.584 963.536 697.04C962.752 696.496 961.632 696.224 960.176 696.224H957.44V702.152C958.272 702.248 959.184 702.296 960.176 702.296ZM960.08 694.448C961.344 694.448 962.344 694.192 963.08 693.68C963.832 693.152 964.208 692.464 964.208 691.616C964.208 690.704 963.84 690.016 963.104 689.552C962.368 689.088 961.36 688.856 960.08 688.856C959.552 688.856 959.072 688.872 958.64 688.904C958.208 688.92 957.808 688.944 957.44 688.976V694.448H960.08Z" fill="#CB1616" fill-opacity="0.82"/>
<rect x="527" y="398" width="32" height="31" fill="#B3B3B3"/>
<g filter="url(#filter7_d)">
<rect x="534" width="18" height="398" fill="#242424"/>
</g>
<g filter="url(#filter8_d)">
<rect x="928" width="18" height="149" fill="#242424"/>
</g>
<path d="M937 155L1000.5 238.25H874.5L937 155Z" fill="black" fill-opacity="0.85"/>
<path d="M910 166C910 156.611 917.611 149 927 149H946C955.389 149 963 156.611 963 166V193C963 202.389 955.389 210 946 210H927C917.611 210 910 202.389 910 193V166Z" fill="#242424"/>
<g filter="url(#filter9_d)">
<path d="M884 301H990V359H884V301Z" fill="#242424"/>
</g>
<g filter="url(#filter10_d)">
<path d="M874 238H1000V301H874V238Z" fill="#242424"/>
</g>
<g filter="url(#filter11_d)">
<rect x="910" y="177" width="53" height="9" rx="4.5" fill="#9C9C9C" fill-opacity="0.26"/>
<rect x="910.5" y="177.5" width="52" height="8" rx="4" stroke="white" stroke-opacity="0.2"/>
</g>
<g filter="url(#filter12_d)">
<rect x="910" y="163" width="53" height="9" rx="4.5" fill="#9C9C9C" fill-opacity="0.26"/>
<rect x="910.5" y="163.5" width="52" height="8" rx="4" stroke="white" stroke-opacity="0.2"/>
</g>
<rect x="887" y="269" width="100" height="25" rx="6" fill="#545454"/>
<rect x="884" y="302" width="18" height="57" fill="black" fill-opacity="0.58"/>
<rect x="884" y="301" width="106" height="1" fill="white" fill-opacity="0.67"/>
<circle cx="431" cy="618" r="18" fill="#161616" fill-opacity="0.23"/>
<circle cx="431" cy="618" r="17.5" stroke="#9B9B9B" stroke-opacity="0.15"/>
<path d="M913.328 272.952C912.23 275.742 910.412 278.496 908.45 280.242C908.738 280.566 909.152 281.25 909.278 281.574C910.016 280.872 910.736 280.044 911.402 279.144V289.386H912.716V277.164C913.454 275.94 914.084 274.662 914.624 273.348L913.328 272.952ZM925.208 281.88V280.584H920.132V275.598C921.752 275.274 923.264 274.896 924.488 274.5L923.498 273.384C921.302 274.176 917.414 274.896 914.084 275.328C914.228 275.634 914.444 276.138 914.498 276.462C915.866 276.3 917.36 276.084 918.8 275.832V280.584H913.49V281.88H918.8V287.406H914.174V288.702H924.938V287.406H920.132V281.88H925.208ZM947.794 281.25V279.882H940.954C940.972 279.54 940.972 279.198 940.972 278.874V275.688H948.244V274.32H932.53V275.688H939.568V278.856C939.568 279.198 939.568 279.54 939.532 279.882H933.088V281.25H939.388C938.902 283.86 937.3 286.506 932.188 288.252C932.476 288.504 932.872 289.08 932.998 289.404C937.804 287.748 939.748 285.264 940.504 282.672C941.872 286.092 944.122 288.36 947.794 289.404C947.992 289.026 948.388 288.45 948.712 288.162C944.842 287.208 942.538 284.796 941.368 281.25H947.794ZM957.385 277.002H970.201V279.738H971.497V275.814H968.149C968.725 275.22 969.391 274.374 969.967 273.564L968.599 273.078C968.203 273.798 967.501 274.842 966.961 275.508L967.735 275.814H964.423V272.952H963.109V275.814H959.959L960.625 275.508C960.319 274.842 959.617 273.87 958.969 273.15L957.799 273.618C958.339 274.284 958.915 275.166 959.257 275.814H956.161V279.738H957.385V277.002ZM960.121 279.504H967.483V281.502H960.121V279.504ZM964.423 287.694V285.534H970.255V284.364H964.423V282.582H968.797V278.442H958.861V282.582H963.109V284.364H957.583V285.534H963.109V287.694H956.017V288.882H971.623V287.694H964.423Z" fill="#929090"/>
</g>
<defs>
<filter id="filter0_d" x="295" y="455" width="806" height="273" filterUnits="userSpaceOnUse" color-interpolation-filters="sRGB">
<feFlood flood-opacity="0" result="BackgroundImageFix"/>
<feColorMatrix in="SourceAlpha" type="matrix" values="0 0 0 0 0 0 0 0 0 0 0 0 0 0 0 0 0 0 127 0"/>
<feOffset/>
<feGaussianBlur stdDeviation="2"/>
<feColorMatrix type="matrix" values="0 0 0 0 0 0 0 0 0 0 0 0 0 0 0 0 0 0 0.12 0"/>
<feBlend mode="normal" in2="BackgroundImageFix" result="effect1_dropShadow"/>
<feBlend mode="normal" in="SourceGraphic" in2="effect1_dropShadow" result="shape"/>
</filter>
<filter id="filter1_d" x="595" y="623" width="100" height="52" filterUnits="userSpaceOnUse" color-interpolation-filters="sRGB">
<feFlood flood-opacity="0" result="BackgroundImageFix"/>
<feColorMatrix in="SourceAlpha" type="matrix" values="0 0 0 0 0 0 0 0 0 0 0 0 0 0 0 0 0 0 127 0"/>
<feMorphology radius="5" operator="dilate" in="SourceAlpha" result="effect1_dropShadow"/>
<feOffset/>
<feGaussianBlur stdDeviation="2"/>
<feColorMatrix type="matrix" values="0 0 0 0 0 0 0 0 0 0 0 0 0 0 0 0 0 0 0.24 0"/>
<feBlend mode="normal" in2="BackgroundImageFix" result="effect1_dropShadow"/>
<feBlend mode="normal" in="SourceGraphic" in2="effect1_dropShadow" result="shape"/>
</filter>
<filter id="filter2_d" x="724" y="623" width="100" height="52" filterUnits="userSpaceOnUse" color-interpolation-filters="sRGB">
<feFlood flood-opacity="0" result="BackgroundImageFix"/>
<feColorMatrix in="SourceAlpha" type="matrix" values="0 0 0 0 0 0 0 0 0 0 0 0 0 0 0 0 0 0 127 0"/>
<feMorphology radius="5" operator="dilate" in="SourceAlpha" result="effect1_dropShadow"/>
<feOffset/>
<feGaussianBlur stdDeviation="2"/>
<feColorMatrix type="matrix" values="0 0 0 0 0 0 0 0 0 0 0 0 0 0 0 0 0 0 0.24 0"/>
<feBlend mode="normal" in2="BackgroundImageFix" result="effect1_dropShadow"/>
<feBlend mode="normal" in="SourceGraphic" in2="effect1_dropShadow" result="shape"/>
</filter>
<filter id="filter3_d" x="738.72" y="571.912" width="75.5263" height="25.376" filterUnits="userSpaceOnUse" color-interpolation-filters="sRGB">
<feFlood flood-opacity="0" result="BackgroundImageFix"/>
<feColorMatrix in="SourceAlpha" type="matrix" values="0 0 0 0 0 0 0 0 0 0 0 0 0 0 0 0 0 0 127 0"/>
<feOffset/>
<feGaussianBlur stdDeviation="2"/>
<feColorMatrix type="matrix" values="0 0 0 0 0 0 0 0 0 0 0 0 0 0 0 0 0 0 0.12 0"/>
<feBlend mode="normal" in2="BackgroundImageFix" result="effect1_dropShadow"/>
<feBlend mode="normal" in="SourceGraphic" in2="effect1_dropShadow" result="shape"/>
</filter>
<filter id="filter4_d" x="600.72" y="571.912" width="86.8934" height="25.376" filterUnits="userSpaceOnUse" color-interpolation-filters="sRGB">
<feFlood flood-opacity="0" result="BackgroundImageFix"/>
<feColorMatrix in="SourceAlpha" type="matrix" values="0 0 0 0 0 0 0 0 0 0 0 0 0 0 0 0 0 0 127 0"/>
<feOffset/>
<feGaussianBlur stdDeviation="2"/>
<feColorMatrix type="matrix" values="0 0 0 0 0 0 0 0 0 0 0 0 0 0 0 0 0 0 0.12 0"/>
<feBlend mode="normal" in2="BackgroundImageFix" result="effect1_dropShadow"/>
<feBlend mode="normal" in="SourceGraphic" in2="effect1_dropShadow" result="shape"/>
</filter>
<filter id="filter5_d" x="964" y="607" width="79" height="79" filterUnits="userSpaceOnUse" color-interpolation-filters="sRGB">
<feFlood flood-opacity="0" result="BackgroundImageFix"/>
<feColorMatrix in="SourceAlpha" type="matrix" values="0 0 0 0 0 0 0 0 0 0 0 0 0 0 0 0 0 0 127 0"/>
<feOffset/>
<feGaussianBlur stdDeviation="5"/>
<feColorMatrix type="matrix" values="0 0 0 0 0 0 0 0 0 0 0 0 0 0 0 0 0 0 0.85 0"/>
<feBlend mode="normal" in2="BackgroundImageFix" result="effect1_dropShadow"/>
<feBlend mode="normal" in="SourceGraphic" in2="effect1_dropShadow" result="shape"/>
</filter>
<filter id="filter6_d" x="877" y="608" width="79" height="79" filterUnits="userSpaceOnUse" color-interpolation-filters="sRGB">
<feFlood flood-opacity="0" result="BackgroundImageFix"/>
<feColorMatrix in="SourceAlpha" type="matrix" values="0 0 0 0 0 0 0 0 0 0 0 0 0 0 0 0 0 0 127 0"/>
<feOffset/>
<feGaussianBlur stdDeviation="5"/>
<feColorMatrix type="matrix" values="0 0 0 0 0 0 0 0 0 0 0 0 0 0 0 0 0 0 0.85 0"/>
<feBlend mode="normal" in2="BackgroundImageFix" result="effect1_dropShadow"/>
<feBlend mode="normal" in="SourceGraphic" in2="effect1_dropShadow" result="shape"/>
</filter>
<filter id="filter7_d" x="514" y="-16" width="58" height="438" filterUnits="userSpaceOnUse" color-interpolation-filters="sRGB">
<feFlood flood-opacity="0" result="BackgroundImageFix"/>
<feColorMatrix in="SourceAlpha" type="matrix" values="0 0 0 0 0 0 0 0 0 0 0 0 0 0 0 0 0 0 127 0"/>
<feOffset dy="4"/>
<feGaussianBlur stdDeviation="10"/>
<feColorMatrix type="matrix" values="0 0 0 0 0 0 0 0 0 0 0 0 0 0 0 0 0 0 0.97 0"/>
<feBlend mode="normal" in2="BackgroundImageFix" result="effect1_dropShadow"/>
<feBlend mode="normal" in="SourceGraphic" in2="effect1_dropShadow" result="shape"/>
</filter>
<filter id="filter8_d" x="908" y="-16" width="58" height="189" filterUnits="userSpaceOnUse" color-interpolation-filters="sRGB">
<feFlood flood-opacity="0" result="BackgroundImageFix"/>
<feColorMatrix in="SourceAlpha" type="matrix" values="0 0 0 0 0 0 0 0 0 0 0 0 0 0 0 0 0 0 127 0"/>
<feOffset dy="4"/>
<feGaussianBlur stdDeviation="10"/>
<feColorMatrix type="matrix" values="0 0 0 0 0 0 0 0 0 0 0 0 0 0 0 0 0 0 0.97 0"/>
<feBlend mode="normal" in2="BackgroundImageFix" result="effect1_dropShadow"/>
<feBlend mode="normal" in="SourceGraphic" in2="effect1_dropShadow" result="shape"/>
</filter>
<filter id="filter9_d" x="784" y="201" width="306" height="258" filterUnits="userSpaceOnUse" color-interpolation-filters="sRGB">
<feFlood flood-opacity="0" result="BackgroundImageFix"/>
<feColorMatrix in="SourceAlpha" type="matrix" values="0 0 0 0 0 0 0 0 0 0 0 0 0 0 0 0 0 0 127 0"/>
<feOffset/>
<feGaussianBlur stdDeviation="50"/>
<feColorMatrix type="matrix" values="0 0 0 0 0 0 0 0 0 0 0 0 0 0 0 0 0 0 1 0"/>
<feBlend mode="normal" in2="BackgroundImageFix" result="effect1_dropShadow"/>
<feBlend mode="normal" in="SourceGraphic" in2="effect1_dropShadow" result="shape"/>
</filter>
<filter id="filter10_d" x="774" y="138" width="326" height="263" filterUnits="userSpaceOnUse" color-interpolation-filters="sRGB">
<feFlood flood-opacity="0" result="BackgroundImageFix"/>
<feColorMatrix in="SourceAlpha" type="matrix" values="0 0 0 0 0 0 0 0 0 0 0 0 0 0 0 0 0 0 127 0"/>
<feOffset/>
<feGaussianBlur stdDeviation="50"/>
<feColorMatrix type="matrix" values="0 0 0 0 0 0 0 0 0 0 0 0 0 0 0 0 0 0 1 0"/>
<feBlend mode="normal" in2="BackgroundImageFix" result="effect1_dropShadow"/>
<feBlend mode="normal" in="SourceGraphic" in2="effect1_dropShadow" result="shape"/>
</filter>
<filter id="filter11_d" x="906" y="177" width="61" height="17" filterUnits="userSpaceOnUse" color-interpolation-filters="sRGB">
<feFlood flood-opacity="0" result="BackgroundImageFix"/>
<feColorMatrix in="SourceAlpha" type="matrix" values="0 0 0 0 0 0 0 0 0 0 0 0 0 0 0 0 0 0 127 0"/>
<feOffset dy="4"/>
<feGaussianBlur stdDeviation="2"/>
<feColorMatrix type="matrix" values="0 0 0 0 0 0 0 0 0 0 0 0 0 0 0 0 0 0 0.25 0"/>
<feBlend mode="normal" in2="BackgroundImageFix" result="effect1_dropShadow"/>
<feBlend mode="normal" in="SourceGraphic" in2="effect1_dropShadow" result="shape"/>
</filter>
<filter id="filter12_d" x="906" y="163" width="61" height="17" filterUnits="userSpaceOnUse" color-interpolation-filters="sRGB">
<feFlood flood-opacity="0" result="BackgroundImageFix"/>
<feColorMatrix in="SourceAlpha" type="matrix" values="0 0 0 0 0 0 0 0 0 0 0 0 0 0 0 0 0 0 127 0"/>
<feOffset dy="4"/>
<feGaussianBlur stdDeviation="2"/>
<feColorMatrix type="matrix" values="0 0 0 0 0 0 0 0 0 0 0 0 0 0 0 0 0 0 0.25 0"/>
<feBlend mode="normal" in2="BackgroundImageFix" result="effect1_dropShadow"/>
<feBlend mode="normal" in="SourceGraphic" in2="effect1_dropShadow" result="shape"/>
</filter>
<clipPath id="clip0">
<rect width="1440" height="1024" fill="white"/>
</clipPath>
</defs>
</svg>
